<svg xmlns="http://www.w3.org/2000/svg" viewBox="0 0 200 200">
  <defs>
    <radialGradient id="maskGrad">
      <stop offset="0%" stop-color="black" />
      <stop offset="20%" stop-color="white" />
      <stop offset="100%" stop-color="black" />
    </radialGradient>
    <mask id="mask1">
      <circle fill="url(#maskGrad)" cx="100" cy="100" r="100" />
    </mask>
  </defs>
  <circle cx="100" cy="100" r="100" fill="#111111" />
  <g mask="url(#mask1)" transform-origin="100 100">
    <animateTransform attributeName="transform" type="rotate" values="0;360" dur="10s" repeatCount="indefinite">
    </animateTransform>
    <circle class="star" fill="white" r="1px" />
    <circle cx="25" class="star a" fill="white" r="1px" />
    <circle cx="50" class="star b" fill="white" r="1px" />
    <circle cx="75" class="star c" fill="white" r="1px" />
    <circle cx="100" class="star d" fill="white" r="1px" />
    <circle cx="125" class="star e" fill="white" r="1px" />
    <circle cx="150" class="star" fill="white" r="1px" />
    <circle cx="175" class="star a" fill="white" r="1px" />
    <circle cx="200" class="star b" fill="white" r="1px" />
    <circle cx="200" cy="25" class="star c" fill="white" r="1px" />
    <circle cx="200" cy="50" class="star d" fill="white" r="1px" />
    <circle cx="200" cy="75" class="star e" fill="white" r="1px" />
    <circle cx="200" cy="100" class="star" fill="white" r="1px" />
    <circle cx="200" cy="125" class="star a" fill="white" r="1px" />
    <circle cx="200" cy="150" class="star b" fill="white" r="1px" />
    <circle cx="200" cy="175" class="star c" fill="white" r="1px" />
    <circle cx="200" cy="200" class="star d" fill="white" r="1px" />
    <circle cx="175" cy="200" class="star e" fill="white" r="1px" />
    <circle cx="150" cy="200" class="star" fill="white" r="1px" />
    <circle cx="125" cy="200" class="star a" fill="white" r="1px" />
    <circle cx="100" cy="200" class="star b" fill="white" r="1px" />
    <circle cx="75" cy="200" class="star c" fill="white" r="1px" />
    <circle cx="50" cy="200" class="star d" fill="white" r="1px" />
    <circle cx="25" cy="200" class="star e" fill="white" r="1px" />
    <circle cy="200" class="star" fill="white" r="1px" />
    <circle cy="175" class="star a" fill="white" r="1px" />
    <circle cy="150" class="star b" fill="white" r="1px" />
    <circle cy="125" class="star c" fill="white" r="1px" />
    <circle cy="100" class="star d" fill="white" r="1px" />
    <circle cy="75" class="star e" fill="white" r="1px" />
  </g>
  <style>
    @keyframes fall-in {
      100% {
        cx: 100px;
        cy: 100px;
      }
    }

    .star {
      animation: fall-in 3s;
      animation-iteration-count: infinite;
    }

    .a {
      animation-delay: 0.5s;
    }

    .b {
      animation-delay: 1s;
    }

    .c {
      animation-delay: 1.5s;
    }

    .d {
      animation-delay: 2s;
    }

    .e {
      animation-delay: 2.5s;
    }
  </style>
</svg>