<?xml version="1.0" encoding="UTF-8" standalone="no"?>
<!-- Created with Inkscape (http://www.inkscape.org/) -->

<svg
   width="200"
   height="200"
   viewBox="0 0 200 200"
   version="1.1"
   id="svg330"
   sodipodi:docname="spin.svg"
   inkscape:version="1.2.2 (732a01da63, 2022-12-09)"
   xmlns:inkscape="http://www.inkscape.org/namespaces/inkscape"
   xmlns:sodipodi="http://sodipodi.sourceforge.net/DTD/sodipodi-0.dtd"
   xmlns:xlink="http://www.w3.org/1999/xlink"
   xmlns="http://www.w3.org/2000/svg"
   xmlns:svg="http://www.w3.org/2000/svg">
  <sodipodi:namedview
     id="namedview332"
     pagecolor="#505050"
     bordercolor="#ffffff"
     borderopacity="1"
     inkscape:showpageshadow="0"
     inkscape:pageopacity="0"
     inkscape:pagecheckerboard="1"
     inkscape:deskcolor="#505050"
     inkscape:document-units="px"
     showgrid="false"
     inkscape:zoom="2.26"
     inkscape:cx="142"
     inkscape:cy="91.2"
     inkscape:window-width="1920"
     inkscape:window-height="1009"
     inkscape:window-x="-8"
     inkscape:window-y="-8"
     inkscape:window-maximized="1"
     inkscape:current-layer="layer1" />
  <defs
     id="defs327" />
  <g
     inkscape:label="Layer 1"
     inkscape:groupmode="layer"
     id="layer1">
     <animateTransform attributeName="transform" type="rotate" repeatCount="indefinite" from="0 100 100" to="360 100 100" dur="5s">

     </animateTransform>
    <g
       id="g7090"
       transform="matrix(2,0,0,2,-100,-100)">
      <path
         style="fill:#ff95fe;fill-opacity:1;fill-rule:evenodd;stroke-width:1.00157"
         id="path6904"
         d="M 142,0 A 50,50 0 0 1 91.5,50 50,50 0 0 1 41.5,0.112 L 91.5,0 Z"
         sodipodi:type="arc"
         sodipodi:arc-type="slice"
         sodipodi:start="0"
         sodipodi:end="3.14"
         sodipodi:ry="50"
         sodipodi:rx="50"
         sodipodi:cy="0.0326"
         sodipodi:cx="91.5"
         transform="rotate(45)" />
      <use
         x="0"
         y="0"
         xlink:href="#path231"
         id="use4609"
         transform="rotate(90,100,100)" />
      <use
         x="0"
         y="0"
         xlink:href="#path6904"
         id="use6976"
         transform="rotate(90,100,100)" />
      <use
         x="0"
         y="0"
         xlink:href="#path231"
         id="use6902"
         transform="rotate(180,100,100)" />
      <use
         x="0"
         y="0"
         xlink:href="#path6904"
         id="use6978"
         transform="rotate(180,100,100)" />
      <use
         x="0"
         y="0"
         xlink:href="#path231"
         id="use6795"
         transform="rotate(-90,100,100)" />
      <use
         x="0"
         y="0"
         xlink:href="#path6904"
         id="use6980"
         transform="rotate(-90,99.9,100)" />
      <path
         style="fill:#ffffff;fill-opacity:1;fill-rule:evenodd;stroke-width:1.00157"
         id="path231"
         d="M 100,100 A 50,50 0 0 1 50,150 50,50 0 0 1 0,100 l 50,0 z"
         sodipodi:type="arc"
         sodipodi:arc-type="slice"
         sodipodi:start="0"
         sodipodi:end="3.14"
         sodipodi:ry="50"
         sodipodi:rx="50"
         sodipodi:cy="100"
         sodipodi:cx="50" />
      <path
         id="use7005"
         style="fill:#ff95fe;fill-opacity:1;fill-rule:evenodd;stroke-width:1.00157"
         d="m 29,99.9 a 50,50 0 0 0 0.1,0 50,50 0 0 0 70.9,0 h -1 z" />
    </g>
  </g>
</svg>
